<svg xmlns="http://www.w3.org/2000/svg" xmlns:xlink="http://www.w3.org/1999/xlink" viewBox="0 0 1320 714">
  <defs>
    <style>
      .cls-1 {
        clip-path: url(#clip-background);
      }

      .cls-2, .cls-3 {
        fill: none;
      }

      .cls-2 {
        stroke: rgba(250,101,103,0.05);
        stroke-width: 2px;
      }

      .cls-3 {
        stroke: #fff;
      }

      .cls-4 {
        fill: #fff;
      }
    </style>
    <clipPath id="clip-background">
      <rect width="1320" height="714"/>
    </clipPath>
  </defs>
  <g id="background" class="cls-1">
    <rect class="cls-4" width="1320" height="714"/>
    <g id="lines">
      <line id="Line_3" data-name="Line 3" class="cls-2" y2="714" transform="translate(10.5 0.5)"/>
      <line id="Line_6" data-name="Line 6" class="cls-2" y2="714" transform="translate(20.5 0.5)"/>
      <line id="Line_7" data-name="Line 7" class="cls-2" y2="714" transform="translate(30.5 0.5)"/>
      <line id="Line_8" data-name="Line 8" class="cls-2" y2="714" transform="translate(40.5 0.5)"/>
      <line id="Line_9" data-name="Line 9" class="cls-2" y2="714" transform="translate(50.5 0.5)"/>
      <line id="Line_10" data-name="Line 10" class="cls-2" y2="714" transform="translate(60.5 0.5)"/>
      <line id="Line_11" data-name="Line 11" class="cls-2" y2="714" transform="translate(70.5 0.5)"/>
      <line id="Line_12" data-name="Line 12" class="cls-2" y2="714" transform="translate(80.5 0.5)"/>
      <line id="Line_13" data-name="Line 13" class="cls-2" y2="714" transform="translate(90.5 0.5)"/>
      <line id="Line_14" data-name="Line 14" class="cls-2" y2="714" transform="translate(100.5 0.5)"/>
      <line id="Line_15" data-name="Line 15" class="cls-2" y2="714" transform="translate(110.5 0.5)"/>
      <line id="Line_16" data-name="Line 16" class="cls-2" y2="714" transform="translate(120.5 0.5)"/>
      <line id="Line_17" data-name="Line 17" class="cls-2" y2="714" transform="translate(130.5 0.5)"/>
      <line id="Line_18" data-name="Line 18" class="cls-2" y2="714" transform="translate(140.5 0.5)"/>
      <line id="Line_19" data-name="Line 19" class="cls-2" y2="714" transform="translate(150.5 0.5)"/>
      <line id="Line_20" data-name="Line 20" class="cls-2" y2="714" transform="translate(160.5 0.5)"/>
      <line id="Line_21" data-name="Line 21" class="cls-2" y2="714" transform="translate(170.5 0.5)"/>
      <line id="Line_22" data-name="Line 22" class="cls-2" y2="714" transform="translate(180.5 0.5)"/>
      <line id="Line_23" data-name="Line 23" class="cls-2" y2="714" transform="translate(190.5 0.5)"/>
      <line id="Line_24" data-name="Line 24" class="cls-2" y2="714" transform="translate(200.5 0.5)"/>
      <line id="Line_25" data-name="Line 25" class="cls-2" y2="714" transform="translate(210.5 0.5)"/>
      <line id="Line_26" data-name="Line 26" class="cls-2" y2="714" transform="translate(220.5 0.5)"/>
      <line id="Line_27" data-name="Line 27" class="cls-2" y2="714" transform="translate(230.5 0.5)"/>
      <line id="Line_28" data-name="Line 28" class="cls-2" y2="714" transform="translate(240.5 0.5)"/>
      <line id="Line_29" data-name="Line 29" class="cls-2" y2="714" transform="translate(250.5 0.5)"/>
      <line id="Line_30" data-name="Line 30" class="cls-2" y2="714" transform="translate(260.5 0.5)"/>
      <line id="Line_31" data-name="Line 31" class="cls-2" y2="714" transform="translate(270.5 0.5)"/>
      <line id="Line_32" data-name="Line 32" class="cls-2" y2="714" transform="translate(280.5 0.5)"/>
      <line id="Line_33" data-name="Line 33" class="cls-2" y2="714" transform="translate(290.5 0.5)"/>
      <line id="Line_34" data-name="Line 34" class="cls-2" y2="714" transform="translate(300.5 0.5)"/>
      <line id="Line_35" data-name="Line 35" class="cls-2" y2="714" transform="translate(310.5 0.5)"/>
      <line id="Line_36" data-name="Line 36" class="cls-2" y2="714" transform="translate(320.5 0.5)"/>
      <line id="Line_37" data-name="Line 37" class="cls-2" y2="714" transform="translate(330.5 0.5)"/>
      <line id="Line_38" data-name="Line 38" class="cls-2" y2="714" transform="translate(340.5 0.5)"/>
      <line id="Line_39" data-name="Line 39" class="cls-2" y2="714" transform="translate(350.5 0.5)"/>
      <line id="Line_40" data-name="Line 40" class="cls-2" y2="714" transform="translate(360.5 0.5)"/>
      <line id="Line_41" data-name="Line 41" class="cls-2" y2="714" transform="translate(370.5 0.5)"/>
      <line id="Line_42" data-name="Line 42" class="cls-2" y2="714" transform="translate(380.5 0.5)"/>
      <line id="Line_43" data-name="Line 43" class="cls-2" y2="714" transform="translate(390.5 0.5)"/>
      <line id="Line_44" data-name="Line 44" class="cls-2" y2="714" transform="translate(400.5 0.5)"/>
      <line id="Line_45" data-name="Line 45" class="cls-2" y2="714" transform="translate(410.5 0.5)"/>
      <line id="Line_46" data-name="Line 46" class="cls-2" y2="714" transform="translate(420.5 0.5)"/>
      <line id="Line_47" data-name="Line 47" class="cls-2" y2="714" transform="translate(430.5 0.5)"/>
      <line id="Line_48" data-name="Line 48" class="cls-2" y2="714" transform="translate(440.5 0.5)"/>
      <line id="Line_49" data-name="Line 49" class="cls-2" y2="714" transform="translate(450.5 0.5)"/>
      <line id="Line_50" data-name="Line 50" class="cls-2" y2="714" transform="translate(460.5 0.5)"/>
      <line id="Line_51" data-name="Line 51" class="cls-2" y2="714" transform="translate(470.5 0.5)"/>
      <line id="Line_52" data-name="Line 52" class="cls-2" y2="714" transform="translate(480.5 0.5)"/>
      <line id="Line_53" data-name="Line 53" class="cls-2" y2="714" transform="translate(490.5 0.5)"/>
      <line id="Line_54" data-name="Line 54" class="cls-2" y2="714" transform="translate(500.5 0.5)"/>
      <line id="Line_55" data-name="Line 55" class="cls-2" y2="714" transform="translate(510.5 0.5)"/>
      <line id="Line_56" data-name="Line 56" class="cls-2" y2="714" transform="translate(520.5 0.5)"/>
      <line id="Line_57" data-name="Line 57" class="cls-2" y2="714" transform="translate(530.5 0.5)"/>
      <line id="Line_58" data-name="Line 58" class="cls-2" y2="714" transform="translate(540.5 0.5)"/>
      <line id="Line_59" data-name="Line 59" class="cls-2" y2="714" transform="translate(550.5 0.5)"/>
      <line id="Line_60" data-name="Line 60" class="cls-2" y2="714" transform="translate(560.5 0.5)"/>
      <line id="Line_61" data-name="Line 61" class="cls-2" y2="714" transform="translate(570.5 0.5)"/>
      <line id="Line_62" data-name="Line 62" class="cls-2" y2="714" transform="translate(580.5 0.5)"/>
      <line id="Line_63" data-name="Line 63" class="cls-2" y2="714" transform="translate(590.5 0.5)"/>
      <line id="Line_64" data-name="Line 64" class="cls-2" y2="714" transform="translate(600.5 0.5)"/>
      <line id="Line_65" data-name="Line 65" class="cls-2" y2="714" transform="translate(610.5 0.5)"/>
      <line id="Line_66" data-name="Line 66" class="cls-2" y2="714" transform="translate(620.5 0.5)"/>
      <line id="Line_67" data-name="Line 67" class="cls-2" y2="714" transform="translate(630.5 0.5)"/>
      <line id="Line_68" data-name="Line 68" class="cls-2" y2="714" transform="translate(640.5 0.5)"/>
      <line id="Line_69" data-name="Line 69" class="cls-2" y2="714" transform="translate(650.5 0.5)"/>
      <line id="Line_70" data-name="Line 70" class="cls-2" y2="714" transform="translate(660.5 0.5)"/>
      <line id="Line_71" data-name="Line 71" class="cls-2" y2="714" transform="translate(670.5 0.5)"/>
      <line id="Line_72" data-name="Line 72" class="cls-2" y2="714" transform="translate(680.5 0.5)"/>
      <line id="Line_73" data-name="Line 73" class="cls-2" y2="714" transform="translate(690.5 0.5)"/>
      <line id="Line_74" data-name="Line 74" class="cls-2" y2="714" transform="translate(700.5 0.5)"/>
      <line id="Line_75" data-name="Line 75" class="cls-2" y2="714" transform="translate(710.5 0.5)"/>
      <line id="Line_76" data-name="Line 76" class="cls-2" y2="714" transform="translate(720.5 0.5)"/>
      <line id="Line_77" data-name="Line 77" class="cls-2" y2="714" transform="translate(730.5 0.5)"/>
      <line id="Line_78" data-name="Line 78" class="cls-2" y2="714" transform="translate(740.5 0.5)"/>
      <line id="Line_79" data-name="Line 79" class="cls-2" y2="714" transform="translate(750.5 0.5)"/>
      <line id="Line_80" data-name="Line 80" class="cls-2" y2="714" transform="translate(760.5 0.5)"/>
      <line id="Line_81" data-name="Line 81" class="cls-2" y2="714" transform="translate(770.5 0.5)"/>
      <line id="Line_82" data-name="Line 82" class="cls-2" y2="714" transform="translate(780.5 0.5)"/>
      <line id="Line_83" data-name="Line 83" class="cls-2" y2="714" transform="translate(790.5 0.5)"/>
      <line id="Line_84" data-name="Line 84" class="cls-2" y2="714" transform="translate(800.5 0.5)"/>
      <line id="Line_85" data-name="Line 85" class="cls-2" y2="714" transform="translate(810.5 0.5)"/>
      <line id="Line_86" data-name="Line 86" class="cls-2" y2="714" transform="translate(820.5 0.5)"/>
      <line id="Line_87" data-name="Line 87" class="cls-2" y2="714" transform="translate(830.5 0.5)"/>
      <line id="Line_88" data-name="Line 88" class="cls-2" y2="714" transform="translate(840.5 0.5)"/>
      <line id="Line_89" data-name="Line 89" class="cls-2" y2="714" transform="translate(850.5 0.5)"/>
      <line id="Line_90" data-name="Line 90" class="cls-2" y2="714" transform="translate(860.5 0.5)"/>
      <line id="Line_91" data-name="Line 91" class="cls-2" y2="714" transform="translate(870.5 0.5)"/>
      <line id="Line_92" data-name="Line 92" class="cls-2" y2="714" transform="translate(880.5 0.5)"/>
      <line id="Line_93" data-name="Line 93" class="cls-2" y2="714" transform="translate(890.5 0.5)"/>
      <line id="Line_94" data-name="Line 94" class="cls-2" y2="714" transform="translate(900.5 0.5)"/>
      <line id="Line_95" data-name="Line 95" class="cls-2" y2="714" transform="translate(910.5 0.5)"/>
      <line id="Line_96" data-name="Line 96" class="cls-2" y2="714" transform="translate(920.5 0.5)"/>
      <line id="Line_97" data-name="Line 97" class="cls-2" y2="714" transform="translate(930.5 0.5)"/>
      <line id="Line_98" data-name="Line 98" class="cls-2" y2="714" transform="translate(940.5 0.5)"/>
      <line id="Line_99" data-name="Line 99" class="cls-2" y2="714" transform="translate(950.5 0.5)"/>
      <line id="Line_100" data-name="Line 100" class="cls-2" y2="714" transform="translate(960.5 0.5)"/>
      <line id="Line_101" data-name="Line 101" class="cls-2" y2="714" transform="translate(970.5 0.5)"/>
      <line id="Line_102" data-name="Line 102" class="cls-2" y2="714" transform="translate(980.5 0.5)"/>
      <line id="Line_103" data-name="Line 103" class="cls-2" y2="714" transform="translate(990.5 0.5)"/>
      <line id="Line_104" data-name="Line 104" class="cls-2" y2="714" transform="translate(1000.5 0.5)"/>
      <line id="Line_105" data-name="Line 105" class="cls-2" y2="714" transform="translate(1010.5 0.5)"/>
      <line id="Line_106" data-name="Line 106" class="cls-2" y2="714" transform="translate(1020.5 0.5)"/>
      <line id="Line_107" data-name="Line 107" class="cls-2" y2="714" transform="translate(1030.5 0.5)"/>
      <line id="Line_108" data-name="Line 108" class="cls-2" y2="714" transform="translate(1040.5 0.5)"/>
      <line id="Line_109" data-name="Line 109" class="cls-2" y2="714" transform="translate(1050.5 0.5)"/>
      <line id="Line_110" data-name="Line 110" class="cls-2" y2="714" transform="translate(1060.5 0.5)"/>
      <line id="Line_111" data-name="Line 111" class="cls-2" y2="714" transform="translate(1070.5 0.5)"/>
      <line id="Line_112" data-name="Line 112" class="cls-2" y2="714" transform="translate(1080.5 0.5)"/>
      <line id="Line_113" data-name="Line 113" class="cls-2" y2="714" transform="translate(1090.5 0.5)"/>
      <line id="Line_114" data-name="Line 114" class="cls-2" y2="714" transform="translate(1100.5 0.5)"/>
      <line id="Line_115" data-name="Line 115" class="cls-2" y2="714" transform="translate(1110.5 0.5)"/>
      <line id="Line_116" data-name="Line 116" class="cls-2" y2="714" transform="translate(1120.5 0.5)"/>
      <line id="Line_117" data-name="Line 117" class="cls-2" y2="714" transform="translate(1130.5 0.5)"/>
      <line id="Line_118" data-name="Line 118" class="cls-2" y2="714" transform="translate(1140.5 0.5)"/>
      <line id="Line_119" data-name="Line 119" class="cls-2" y2="714" transform="translate(1150.5 0.5)"/>
      <line id="Line_120" data-name="Line 120" class="cls-2" y2="714" transform="translate(1160.5 0.5)"/>
      <line id="Line_121" data-name="Line 121" class="cls-2" y2="714" transform="translate(1170.5 0.5)"/>
      <line id="Line_122" data-name="Line 122" class="cls-2" y2="714" transform="translate(1180.5 0.5)"/>
      <line id="Line_123" data-name="Line 123" class="cls-2" y2="714" transform="translate(1190.5 0.5)"/>
      <line id="Line_124" data-name="Line 124" class="cls-2" y2="714" transform="translate(1200.5 0.5)"/>
      <line id="Line_125" data-name="Line 125" class="cls-2" y2="714" transform="translate(1210.5 0.5)"/>
      <line id="Line_126" data-name="Line 126" class="cls-2" y2="714" transform="translate(1220.5 0.5)"/>
      <line id="Line_127" data-name="Line 127" class="cls-2" y2="714" transform="translate(1230.5 0.5)"/>
      <line id="Line_128" data-name="Line 128" class="cls-2" y2="714" transform="translate(1240.5 0.5)"/>
      <line id="Line_129" data-name="Line 129" class="cls-2" y2="714" transform="translate(1250.5 0.5)"/>
      <line id="Line_130" data-name="Line 130" class="cls-2" y2="714" transform="translate(1260.5 0.5)"/>
      <line id="Line_131" data-name="Line 131" class="cls-2" y2="714" transform="translate(1270.5 0.5)"/>
      <line id="Line_132" data-name="Line 132" class="cls-2" y2="714" transform="translate(1280.5 0.5)"/>
      <line id="Line_133" data-name="Line 133" class="cls-2" y2="714" transform="translate(1290.5 0.5)"/>
      <line id="Line_134" data-name="Line 134" class="cls-2" y2="714" transform="translate(1300.5 0.5)"/>
      <line id="Line_135" data-name="Line 135" class="cls-2" y2="714" transform="translate(1310.5 0.5)"/>
      <line id="Line_136" data-name="Line 136" class="cls-2" y2="1320" transform="translate(1320.5 10.5) rotate(90)"/>
      <line id="Line_137" data-name="Line 137" class="cls-2" y2="1320" transform="translate(1320.5 20.5) rotate(90)"/>
      <line id="Line_138" data-name="Line 138" class="cls-2" y2="1320" transform="translate(1320.5 30.5) rotate(90)"/>
      <line id="Line_139" data-name="Line 139" class="cls-2" y2="1320" transform="translate(1320.5 40.5) rotate(90)"/>
      <line id="Line_140" data-name="Line 140" class="cls-2" y2="1320" transform="translate(1320.5 50.5) rotate(90)"/>
      <line id="Line_141" data-name="Line 141" class="cls-2" y2="1320" transform="translate(1320.5 60.5) rotate(90)"/>
      <line id="Line_142" data-name="Line 142" class="cls-2" y2="1320" transform="translate(1320.5 70.5) rotate(90)"/>
      <line id="Line_143" data-name="Line 143" class="cls-2" y2="1320" transform="translate(1320.5 80.5) rotate(90)"/>
      <line id="Line_144" data-name="Line 144" class="cls-2" y2="1320" transform="translate(1320.5 90.5) rotate(90)"/>
      <line id="Line_145" data-name="Line 145" class="cls-2" y2="1320" transform="translate(1320.5 100.5) rotate(90)"/>
      <line id="Line_146" data-name="Line 146" class="cls-2" y2="1320" transform="translate(1320.5 110.5) rotate(90)"/>
      <line id="Line_147" data-name="Line 147" class="cls-2" y2="1320" transform="translate(1320.5 120.5) rotate(90)"/>
      <line id="Line_148" data-name="Line 148" class="cls-2" y2="1320" transform="translate(1320.5 130.5) rotate(90)"/>
      <line id="Line_149" data-name="Line 149" class="cls-2" y2="1320" transform="translate(1320.5 140.5) rotate(90)"/>
      <line id="Line_150" data-name="Line 150" class="cls-2" y2="1320" transform="translate(1320.5 150.5) rotate(90)"/>
      <line id="Line_151" data-name="Line 151" class="cls-2" y2="1320" transform="translate(1320.5 160.5) rotate(90)"/>
      <line id="Line_152" data-name="Line 152" class="cls-2" y2="1320" transform="translate(1320.5 170.5) rotate(90)"/>
      <line id="Line_153" data-name="Line 153" class="cls-2" y2="1320" transform="translate(1320.5 180.5) rotate(90)"/>
      <line id="Line_154" data-name="Line 154" class="cls-2" y2="1320" transform="translate(1320.5 190.5) rotate(90)"/>
      <line id="Line_155" data-name="Line 155" class="cls-2" y2="1320" transform="translate(1320.5 200.5) rotate(90)"/>
      <line id="Line_156" data-name="Line 156" class="cls-2" y2="1320" transform="translate(1320.5 210.5) rotate(90)"/>
      <line id="Line_157" data-name="Line 157" class="cls-2" y2="1320" transform="translate(1320.5 220.5) rotate(90)"/>
      <line id="Line_158" data-name="Line 158" class="cls-2" y2="1320" transform="translate(1320.5 230.5) rotate(90)"/>
      <line id="Line_159" data-name="Line 159" class="cls-2" y2="1320" transform="translate(1320.5 240.5) rotate(90)"/>
      <line id="Line_160" data-name="Line 160" class="cls-2" y2="1320" transform="translate(1320.5 250.5) rotate(90)"/>
      <line id="Line_161" data-name="Line 161" class="cls-2" y2="1320" transform="translate(1320.5 260.5) rotate(90)"/>
      <line id="Line_162" data-name="Line 162" class="cls-2" y2="1320" transform="translate(1320.5 270.5) rotate(90)"/>
      <line id="Line_163" data-name="Line 163" class="cls-2" y2="1320" transform="translate(1320.5 280.5) rotate(90)"/>
      <line id="Line_164" data-name="Line 164" class="cls-2" y2="1320" transform="translate(1320.5 290.5) rotate(90)"/>
      <line id="Line_165" data-name="Line 165" class="cls-2" y2="1320" transform="translate(1320.5 300.5) rotate(90)"/>
      <line id="Line_166" data-name="Line 166" class="cls-2" y2="1320" transform="translate(1320.5 310.5) rotate(90)"/>
      <line id="Line_167" data-name="Line 167" class="cls-2" y2="1320" transform="translate(1320.5 320.5) rotate(90)"/>
      <line id="Line_168" data-name="Line 168" class="cls-2" y2="1320" transform="translate(1320.5 330.5) rotate(90)"/>
      <line id="Line_169" data-name="Line 169" class="cls-2" y2="1320" transform="translate(1320.5 340.5) rotate(90)"/>
      <line id="Line_170" data-name="Line 170" class="cls-2" y2="1320" transform="translate(1320.5 350.5) rotate(90)"/>
      <line id="Line_171" data-name="Line 171" class="cls-2" y2="1320" transform="translate(1320.5 360.5) rotate(90)"/>
      <line id="Line_172" data-name="Line 172" class="cls-2" y2="1320" transform="translate(1320.5 370.5) rotate(90)"/>
      <line id="Line_173" data-name="Line 173" class="cls-2" y2="1320" transform="translate(1320.5 380.5) rotate(90)"/>
      <line id="Line_175" data-name="Line 175" class="cls-2" y2="1320" transform="translate(1320.5 400.5) rotate(90)"/>
      <line id="Line_177" data-name="Line 177" class="cls-2" y2="1320" transform="translate(1320.5 420.5) rotate(90)"/>
      <line id="Line_179" data-name="Line 179" class="cls-2" y2="1320" transform="translate(1320.5 440.5) rotate(90)"/>
      <line id="Line_181" data-name="Line 181" class="cls-2" y2="1320" transform="translate(1320.5 460.5) rotate(90)"/>
      <line id="Line_185" data-name="Line 185" class="cls-2" y2="1320" transform="translate(1320.5 500.5) rotate(90)"/>
      <line id="Line_189" data-name="Line 189" class="cls-2" y2="1320" transform="translate(1320.5 540.5) rotate(90)"/>
      <line id="Line_193" data-name="Line 193" class="cls-2" y2="1320" transform="translate(1320.5 580.5) rotate(90)"/>
      <line id="Line_197" data-name="Line 197" class="cls-2" y2="1320" transform="translate(1320.5 620.5) rotate(90)"/>
      <line id="Line_201" data-name="Line 201" class="cls-2" y2="1320" transform="translate(1320.5 660.5) rotate(90)"/>
      <line id="Line_183" data-name="Line 183" class="cls-2" y2="1320" transform="translate(1320.5 480.5) rotate(90)"/>
      <line id="Line_187" data-name="Line 187" class="cls-2" y2="1320" transform="translate(1320.5 520.5) rotate(90)"/>
      <line id="Line_191" data-name="Line 191" class="cls-2" y2="1320" transform="translate(1320.5 560.5) rotate(90)"/>
      <line id="Line_195" data-name="Line 195" class="cls-2" y2="1320" transform="translate(1320.5 600.5) rotate(90)"/>
      <line id="Line_199" data-name="Line 199" class="cls-2" y2="1320" transform="translate(1320.5 640.5) rotate(90)"/>
      <line id="Line_203" data-name="Line 203" class="cls-2" y2="1320" transform="translate(1320.5 680.5) rotate(90)"/>
      <line id="Line_174" data-name="Line 174" class="cls-2" y2="1320" transform="translate(1320.5 390.5) rotate(90)"/>
      <line id="Line_176" data-name="Line 176" class="cls-2" y2="1320" transform="translate(1320.5 410.5) rotate(90)"/>
      <line id="Line_178" data-name="Line 178" class="cls-2" y2="1320" transform="translate(1320.5 430.5) rotate(90)"/>
      <line id="Line_180" data-name="Line 180" class="cls-2" y2="1320" transform="translate(1320.5 450.5) rotate(90)"/>
      <line id="Line_182" data-name="Line 182" class="cls-2" y2="1320" transform="translate(1320.5 470.5) rotate(90)"/>
      <line id="Line_186" data-name="Line 186" class="cls-2" y2="1320" transform="translate(1320.5 510.5) rotate(90)"/>
      <line id="Line_190" data-name="Line 190" class="cls-2" y2="1320" transform="translate(1320.5 550.5) rotate(90)"/>
      <line id="Line_194" data-name="Line 194" class="cls-2" y2="1320" transform="translate(1320.5 590.5) rotate(90)"/>
      <line id="Line_198" data-name="Line 198" class="cls-2" y2="1320" transform="translate(1320.5 630.5) rotate(90)"/>
      <line id="Line_202" data-name="Line 202" class="cls-2" y2="1320" transform="translate(1320.5 670.5) rotate(90)"/>
      <line id="Line_184" data-name="Line 184" class="cls-2" y2="1320" transform="translate(1320.5 490.5) rotate(90)"/>
      <line id="Line_188" data-name="Line 188" class="cls-2" y2="1320" transform="translate(1320.5 530.5) rotate(90)"/>
      <line id="Line_192" data-name="Line 192" class="cls-2" y2="1320" transform="translate(1320.5 570.5) rotate(90)"/>
      <line id="Line_196" data-name="Line 196" class="cls-2" y2="1320" transform="translate(1320.5 610.5) rotate(90)"/>
      <line id="Line_200" data-name="Line 200" class="cls-2" y2="1320" transform="translate(1320.5 650.5) rotate(90)"/>
      <line id="Line_204" data-name="Line 204" class="cls-2" y2="1320" transform="translate(1320.5 690.5) rotate(90)"/>
      <line id="Line_205" data-name="Line 205" class="cls-2" y2="1320" transform="translate(1320.5 700.5) rotate(90)"/>
      <line id="Line_206" data-name="Line 206" class="cls-2" y2="1320" transform="translate(1320.5 710.5) rotate(90)"/>
    </g>
    <g id="borders">
      <line id="left_border" data-name="left border" class="cls-3" y2="714" transform="translate(0.5 0.5)"/>
      <line id="bottom_border" data-name="bottom border" class="cls-3" y2="1320" transform="translate(1320.5 713.5) rotate(90)"/>
      <line id="right_border" data-name="right border" class="cls-3" y2="714" transform="translate(1319.5 0.5)"/>
      <line id="top_border" data-name="top border" class="cls-3" y2="1320" transform="translate(1320.5 0.5) rotate(90)"/>
    </g>
  </g>
</svg>
